<?xml version="1.0" encoding="UTF-8"?>
<svg id="Layer_1" data-name="Layer 1" xmlns="http://www.w3.org/2000/svg" viewBox="0 0 1000 276.37">
  <defs>
    <style>
      .cls-1 {
        fill: #2d4977;
      }
    </style>
  </defs>
  <path class="cls-1" d="M683.26,61.46h31.59v153.25h-31.59V61.46ZM773.75,58.65c-19.91,0-39.49,12.08-50.19,24.82-.33.5-.49.99-.49,1.49,0,1.82,1.97,2.81,3.46,1.99,9.21-5.63,18.43-8.61,28.79-8.61,21.72,0,31.1,11.59,31.1,31.61v104.92h31.59v-110.72c-.17-27.64-15.3-45.51-44.26-45.51ZM370.46,61.46h31.59v153.25h-31.59V61.46ZM460.95,58.65c-19.91,0-39.49,12.08-50.19,24.82-.33.5-.49.99-.49,1.49,0,1.82,1.97,2.81,3.62,1.99,9.21-5.63,18.43-8.61,28.79-8.61,21.72,0,31.1,11.59,31.1,31.61v104.92h31.43v-110.72c-.16-27.64-15.3-45.51-44.26-45.51ZM850.76,61.46h31.1v153.25h-31.1V61.46ZM873.14,1.39c9.05,3.81,13.33,14.23,9.54,23.33-3.78,9.1-14.15,13.41-23.2,9.6-9.05-3.81-13.33-14.23-9.54-23.34,3.78-9.1,14.15-13.41,23.2-9.6ZM607.89,194.19c-5.1,3.81-12.01,7.78-21.88,7.78-17.44,0-22.87-11.09-22.87-26.31,0-11.25,6.75-19.69,12.67-24.16,7.07-5.46,21.55-12.41,33.89-16.88,1.15-.5,1.97-1.66,1.65-2.98-.33-1.32-1.81-1.99-2.96-1.66-18.59,4.64-39.98,9.93-47.55,13.08-12.67,5.46-27.97,15.06-27.97,37.73,0,18.2,11.52,37.24,39.49,37.24,20.24,0,32.25-11.59,38.83-20.52.5-.66.5-1.32.17-2.15-.66-1.49-2.31-1.98-3.46-1.16ZM605.1,58.65h-1.81c-27.97.33-58.74,13.08-59.23,33.26-.17,9.1,5.92,16.88,14.81,18.21,11.03,1.66,20.57-6.79,20.57-17.54,0-7.12-4.28-13.41-10.37-16.22-1.81-.83-1.48-3.64.49-4.14,7.24-1.66,15.8-1.99,24.68-.99,14.81,1.66,26,13.57,26,28.63v115.02h31.59v-115.85c0-28.8-19.25-40.38-46.73-40.38ZM956.4,17.94h-31.1v43.69h-21.72v10.59h21.72v103.1c0,31.12,19.09,42.53,39.49,42.53s29.12-8.77,34.55-16.22c.33-.49.49-.99.49-1.49,0-1.82-1.97-2.98-3.46-2.15-4.28,2.15-9.54,4.14-17.93,4.14-11.52,0-21.89-6.12-21.89-25.49v-104.26h43.44v-10.59h-43.44l-.16-43.86Z"/>
  <path class="cls-1" d="M136.68,1.41c83.49,0,136.69,21.82,136.69,137.48s-53.2,137.48-136.69,137.48S0,254.55,0,138.89,53.2,1.41,136.68,1.41ZM136.68,207.63c41.74,0,68.35-10.91,68.35-68.74s-26.6-68.74-68.35-68.74-68.34,10.91-68.34,68.74,26.6,68.74,68.34,68.74Z"/>
  <path class="cls-1" d="M136.69,83.9c-33.39,0-54.67,8.73-54.67,54.99s21.28,54.99,54.67,54.99,54.67-8.73,54.67-54.99-21.28-54.99-54.67-54.99Z"/>
</svg>